<svg xmlns="http://www.w3.org/2000/svg" viewBox="0 0 24 24" role="img" aria-labelledby="title">
  <title>Apple</title>
  <path fill="#5d626c" d="M17.05 12.54c-.03-3.01 2.46-4.47 2.57-4.54a5.5 5.5 0 0 0-4.34-2.35c-1.83-.19-3.6 1.1-4.53 1.1-.95 0-2.38-1.08-3.92-1.05a5.76 5.76 0 0 0-4.84 2.95c-2.1 3.64-.53 9 1.48 11.94 1 1.44 2.17 3.05 3.71 3 1.5-.06 2.06-.96 3.87-.96 1.79 0 2.32.96 3.88.92 1.61-.02 2.63-1.45 3.59-2.9a11.9 11.9 0 0 0 1.64-3.35 5.2 5.2 0 0 1-3.11-4.76ZM14.08 3.71A5.3 5.3 0 0 0 15.3 0a5.4 5.4 0 0 0-3.49 1.77 5.06 5.06 0 0 0-1.25 3.57 4.46 4.46 0 0 0 3.52-1.63Z"/>
</svg>
